<svg data-v-423bf9ae="" xmlns="http://www.w3.org/2000/svg" viewBox="0 0 NaN NaN" class="iconAboveSlogan"><!----><!----><!----><g data-v-423bf9ae="" id="efa3d085-86a6-4559-b5a8-e6508b9a607d" fill="#000000" transform="matrix(6.109979229907069,0,0,6.109979229907069,-86.76744254803121,76.66598891504202)"><path d="M4.20 4.31L1.02 4.31L1.02 14L4.20 14C7.14 14 9.17 12.01 9.17 9.14C9.17 6.30 7.14 4.31 4.20 4.31ZM4.19 12.64L2.55 12.64L2.55 5.67L4.19 5.67C6.22 5.67 7.62 7.07 7.62 9.13C7.62 11.21 6.22 12.64 4.19 12.64ZM12.01 8.72L12.01 7.11L10.58 7.11L10.58 14L12.01 14L12.01 10.60C12.01 9.18 13.01 8.34 14.60 8.34L14.60 6.93C13.38 6.93 12.47 7.59 12.01 8.72ZM15.60 4.31L15.60 14L17.02 14L17.02 4.31ZM23.65 7.11L21.60 12.59L19.56 7.11L18.03 7.11L20.75 14L22.46 14L25.17 7.11ZM32.94 10.57C32.93 8.48 31.40 6.99 29.27 6.99C27.15 6.99 25.59 8.48 25.59 10.56C25.59 12.63 27.15 14.13 29.27 14.13C30.97 14.13 32.44 13.03 32.83 11.51L31.37 11.51C31.11 12.33 30.27 12.95 29.29 12.95C28.10 12.95 27.19 12.15 27.01 11.00L32.90 11.00C32.93 10.86 32.94 10.71 32.94 10.57ZM29.29 8.16C30.42 8.16 31.33 8.88 31.57 9.90L27.05 9.90C27.30 8.86 28.17 8.16 29.29 8.16Z"></path></g><defs data-v-423bf9ae=""><linearGradient data-v-423bf9ae="" gradientTransform="rotate(25)" id="ca1db76a-2942-47e5-82a0-bd32e5bbf51d" x1="0%" y1="0%" x2="100%" y2="0%"><stop data-v-423bf9ae="" offset="0%" style="stop-color: rgb(8, 199, 214); stop-opacity: 1;"></stop><stop data-v-423bf9ae="" offset="100%" style="stop-color: rgb(2, 2, 62); stop-opacity: 1;"></stop></linearGradient></defs><g data-v-423bf9ae="" id="71fb6913-5f45-4bdd-b46e-2c23ef831bd5" transform="matrix(2.8125,0,0,2.8125,-29,0)" stroke="none" fill="url(#ca1db76a-2942-47e5-82a0-bd32e5bbf51d)"><path d="M2.83 18.247l26.34-9.124L2.83 0zM29.17 32V13.753L2.83 22.877z"></path></g><!----><g data-v-423bf9ae="" id="039a3794-4c05-46b3-83e4-f94f3f9a9028" fill="#000000" transform="matrix(Infinity,0,0,Infinity,0,0)"><path d=""></path></g></svg>